<svg width="256" height="256" viewBox="0 0 256 256" fill="none" xmlns="http://www.w3.org/2000/svg">
<g clip-path="url(#clip0_1_658)">
<rect width="256" height="256" fill="#F7F3F7"/>
<path d="M65.7642 58.1453C69.08 58.2779 73.5232 58.4105 79.0937 58.5431C84.7968 58.6758 90.4337 58.7421 96.0042 58.7421C102.371 58.7421 108.538 58.6758 114.506 58.5431C120.475 58.4105 124.719 58.3442 127.239 58.3442C139.574 58.3442 149.786 59.7368 157.877 62.5221C166.1 65.1747 172.201 69.0874 176.18 74.26C180.292 79.4326 182.347 85.6663 182.347 92.961C182.347 97.4705 181.419 102.046 179.562 106.688C177.705 111.198 174.522 115.442 170.013 119.421C165.636 123.267 159.601 126.384 151.908 128.772C144.216 131.026 134.534 132.154 122.862 132.154H103.763V128.175H120.873C128.698 128.175 134.6 126.716 138.579 123.798C142.691 120.747 145.476 116.768 146.935 111.861C148.526 106.821 149.322 101.251 149.322 95.1495C149.322 84.6716 147.465 76.581 143.752 70.8779C140.038 65.0421 133.672 62.1242 124.653 62.1242C119.48 62.1242 116.098 63.2516 114.506 65.5063C113.047 67.761 112.318 72.3368 112.318 79.2337V177.912C112.318 182.686 112.649 186.267 113.313 188.655C114.108 191.042 115.567 192.634 117.689 193.429C119.812 194.225 122.995 194.756 127.239 195.021V199C123.658 198.735 119.148 198.602 113.711 198.602C108.273 198.469 102.768 198.403 97.1979 198.403C90.8316 198.403 84.7968 198.469 79.0937 198.602C73.5232 198.602 69.08 198.735 65.7642 199V195.021C70.0084 194.756 73.1916 194.225 75.3137 193.429C77.4358 192.634 78.8284 191.042 79.4916 188.655C80.2874 186.267 80.6853 182.686 80.6853 177.912V79.2337C80.6853 74.3263 80.2874 70.7453 79.4916 68.4905C78.8284 66.1032 77.3695 64.5116 75.1147 63.7158C72.9926 62.7874 69.8758 62.2568 65.7642 62.1242V58.1453ZM103.365 128.772C109.068 128.904 113.976 129.169 118.087 129.567C122.332 129.965 126.045 130.363 129.228 130.761C132.412 131.026 135.263 131.225 137.783 131.358C149.853 132.419 158.739 135.005 164.442 139.117C170.278 143.228 174.058 149.396 175.782 157.619L180.358 178.111C181.552 183.416 182.812 187.129 184.138 189.252C185.464 191.374 187.387 192.435 189.907 192.435C191.632 192.302 193.024 191.904 194.085 191.241C195.279 190.445 196.539 189.318 197.865 187.859L200.651 190.246C197.069 194.358 193.223 197.276 189.112 199C185 200.857 180.026 201.785 174.191 201.785C167.028 201.785 161.126 200.26 156.484 197.209C151.842 194.159 148.792 188.522 147.333 180.299L143.752 160.404C142.823 154.834 141.696 149.993 140.369 145.881C139.043 141.637 137.186 138.321 134.799 135.934C132.544 133.414 129.361 132.154 125.249 132.154H103.763L103.365 128.772Z" fill="#059B8E"/>
</g>
<defs>
<clipPath id="clip0_1_658">
<rect width="256" height="256" fill="white"/>
</clipPath>
</defs>
</svg>
