<svg width="256" height="256" viewBox="0 0 256 256" fill="none" xmlns="http://www.w3.org/2000/svg">
<g clip-path="url(#clip0_1_658)">
<rect width="256" height="256" fill="white"/>
<path d="M74.9263 201.995C72.4063 201.995 70.6821 201.928 69.7537 201.796C70.6821 194.103 74.7274 174.606 81.8895 143.305C89.1842 111.872 92.8316 91.9768 92.8316 83.621C92.8316 82.0295 91.9032 79.9737 90.0463 77.4537C88.1895 74.801 86.3326 72.6126 84.4758 70.8884L81.8895 68.1031L82.4863 64.92C100.657 61.4716 119.888 59.7474 140.181 59.7474C164.585 59.7474 176.787 69.3632 176.787 88.5947C176.787 98.0116 174.4 106.633 169.625 114.458C164.983 122.151 157.688 128.185 147.741 132.562C155.168 157.364 161.535 173.413 166.84 180.707C169.227 183.758 171.084 185.283 172.411 185.283C174.798 185.283 178.512 184.089 183.552 181.702L185.939 180.508L190.515 187.869C185.607 192.379 179.904 196.093 173.405 199.011C167.039 201.928 161.004 203.387 155.301 203.387C149.731 203.387 145.088 201 141.375 196.225C137.794 191.318 134.478 184.156 131.427 174.739C128.509 165.322 125.525 153.253 122.475 138.531C118.231 138.796 114.981 138.928 112.726 138.928C105.962 167.975 102.248 187.604 101.585 197.817C95.8821 200.602 86.9958 201.995 74.9263 201.995ZM120.485 125.4C128.443 125.4 134.677 121.885 139.186 114.856C143.828 107.694 146.149 99.2053 146.149 89.3905C146.149 84.2179 145.221 80.04 143.364 76.8568C141.507 73.6737 138.722 72.0821 135.008 72.0821C133.417 72.0821 131.494 72.3474 129.239 72.8779C127.117 73.2758 126.056 73.541 126.056 73.6737C123.934 87.3347 120.485 104.577 115.711 125.4H120.485Z" fill="#059B8E"/>
</g>
<defs>
<clipPath id="clip0_1_658">
<rect width="256" height="256" fill="white"/>
</clipPath>
</defs>
</svg>
